# xmcd
#
# Track frame offsets: 
#        183
#        40903
#        69238
#        111310
#        138358
#        173898
#        195710
#
# Disc length: 2814 seconds
#
# Revision: 3
# Processed by: cddbd v1.5.2PL0 Copyright (c) Steve Scherf et al.
# Submitted via: ExactAudioCopyFreeDBPlugin 1.0
#
DISCID=5f0afc07
DTITLE=Canned Heat - '70 Concert - Live In Europe
DYEAR=1970
DGENRE=Blues
TTITLE0=That's All Right Mama
TTITLE1=Bring It On Home
TTITLE2=Pulling Hair Blues
TTITLE3=Medley: Back Out On The Road and On The Road Again
TTITLE4=London Blues
TTITLE5=Let's Work Together
TTITLE6=Goodbye For Now
EXTD=Input by Bill (whall@netcomuk.co.uk)
EXTT0=
EXTT1=
EXTT2=
EXTT3=
EXTT4=
EXTT5=
EXTT6=
PLAYORDER=
